<svg id="Кнопка_назад" data-name="Кнопка назад" xmlns="http://www.w3.org/2000/svg" width="64.003" height="64.003" viewBox="0 0 67.188 67.188">
  <defs>
    <style>
      .cls-1 {
        fill: none;
        stroke: #e9e9e9;
        stroke-width: 4px;
        fill-rule: evenodd;
      }
    </style>
  </defs>
  <path id="Линия_1" data-name="Линия 1" class="cls-1" d="M58.326,571.826l64.347,64.347Zm0,0,64.347,64.347Zm0,0,64.347,64.347Zm0,0,64.347,64.347Zm0,0,64.347,64.347Zm0,0,64.347,64.347Zm0,0,64.347,64.347Zm0,0,64.347,64.347Zm0,0,64.347,64.347Zm0,0,64.347,64.347Zm0,0,64.347,64.347Zm0,0,64.347,64.347Zm0,0,64.347,64.347Zm0,0,64.347,64.347Zm0,0,64.347,64.347Zm0,0,64.347,64.347Zm0,0,64.347,64.347Zm0,0,64.347,64.347Z" transform="translate(-56.906 -570.406)"/>
  <path id="Линия_1-2" data-name="Линия 1" class="cls-1" d="M58.326,636.173l64.347-64.347Zm0,0,64.347-64.347Zm0,0,64.347-64.347Zm0,0,64.347-64.347Zm0,0,64.347-64.347Zm0,0,64.347-64.347Zm0,0,64.347-64.347Zm0,0,64.347-64.347Zm0,0,64.347-64.347Zm0,0,64.347-64.347Zm0,0,64.347-64.347Zm0,0,64.347-64.347Zm0,0,64.347-64.347Zm0,0,64.347-64.347Zm0,0,64.347-64.347Zm0,0,64.347-64.347Zm0,0,64.347-64.347Zm0,0,64.347-64.347Z" transform="translate(-56.906 -570.406)"/>
</svg>
