<?xml version="1.0" standalone="no"?>
<!DOCTYPE svg PUBLIC "-//W3C//DTD SVG 20010904//EN"
 "http://www.w3.org/TR/2001/REC-SVG-20010904/DTD/svg10.dtd">
<svg version="1.0" xmlns="http://www.w3.org/2000/svg"
 width="72.000000pt" height="92.000000pt" viewBox="0 0 72.000000 92.000000"
 preserveAspectRatio="xMidYMid meet">

<g transform="translate(0.000000,92.000000) scale(0.100000,-0.100000)"
fill="#000000" stroke="none">
<path d="M281 885 c-19 -29 -23 -43 -18 -78 6 -43 6 -44 -34 -61 -22 -10 -43
-25 -46 -35 -6 -14 -26 -42 -63 -88 -6 -7 -10 -18 -10 -26 0 -7 -4 -17 -9 -22
-5 -6 -17 -48 -25 -95 -31 -171 -51 -255 -63 -263 -7 -4 -13 -27 -13 -52 0
-61 22 -75 122 -75 l77 0 47 -45 c45 -44 47 -45 114 -45 67 0 69 1 114 45 l47
45 77 0 c100 0 122 14 122 75 0 25 -6 48 -13 52 -12 8 -32 92 -63 263 -8 47
-20 89 -25 95 -5 5 -9 15 -9 22 0 8 -4 19 -10 26 -5 7 -30 37 -55 68 -24 32
-55 59 -69 63 -24 6 -25 9 -19 51 5 37 2 51 -18 80 -23 33 -27 35 -79 35 -52
0 -56 -2 -79 -35z m97 -38 c16 -19 3 -57 -19 -57 -14 0 -19 7 -19 28 0 42 17
54 38 29z m76 -165 c17 -10 40 -37 51 -61 11 -23 26 -45 32 -49 10 -7 29 -86
69 -297 8 -44 20 -82 25 -83 5 -2 7 -8 3 -13 -7 -12 -541 -12 -548 0 -4 5 -2
11 3 13 5 1 16 39 25 83 34 186 59 290 72 300 7 5 20 26 28 46 18 42 33 57 83
75 46 17 114 11 157 -14z m-44 -601 c0 -13 -46 -22 -75 -15 -42 10 -28 24 25
24 28 0 50 -4 50 -9z"/>
</g>
</svg>
