<?xml version="1.0" standalone="no"?>
<!DOCTYPE svg PUBLIC "-//W3C//DTD SVG 20010904//EN"
 "http://www.w3.org/TR/2001/REC-SVG-20010904/DTD/svg10.dtd">
<svg version="1.0" xmlns="http://www.w3.org/2000/svg"
 width="85.000000pt" height="85.000000pt" viewBox="0 0 85.000000 85.000000"
 preserveAspectRatio="xMidYMid meet">

<g transform="translate(0.000000,85.000000) scale(0.100000,-0.100000)"
fill="#000000" stroke="none">
<path d="M336 834 c-3 -9 -6 -22 -6 -30 0 -18 -28 -48 -53 -57 -11 -4 -29 0
-45 11 -15 10 -32 21 -38 25 -6 3 -38 -22 -72 -56 l-62 -62 24 -36 c41 -60 23
-97 -56 -113 -28 -6 -28 -7 -28 -91 0 -84 0 -85 27 -91 79 -16 98 -53 58 -112
-22 -33 -23 -72 -2 -72 6 0 32 -20 57 -45 l46 -45 36 25 c23 16 43 22 55 18
25 -9 53 -39 53 -57 0 -41 10 -46 95 -46 85 0 95 5 95 46 0 18 28 48 53 57 12
4 32 -2 55 -18 l36 -25 46 45 c25 25 51 45 57 45 21 0 20 39 -2 72 -40 59 -21
96 58 112 27 6 27 7 27 91 0 84 0 85 -27 91 -79 16 -98 53 -58 112 22 33 23
72 2 72 -6 0 -32 20 -57 45 l-46 45 -36 -25 c-23 -16 -43 -22 -55 -18 -25 9
-53 39 -53 57 0 41 -10 46 -95 46 -66 0 -84 -3 -89 -16z m124 -58 c0 -31 44
-75 93 -91 33 -11 42 -10 74 6 l37 19 24 -23 c23 -23 23 -24 5 -55 -10 -18
-22 -32 -26 -32 -5 0 -1 -10 7 -22 9 -12 16 -30 16 -39 0 -26 58 -79 86 -79
21 0 24 -5 24 -35 0 -30 -3 -35 -24 -35 -28 0 -86 -53 -86 -79 0 -9 -7 -27
-16 -39 -8 -12 -12 -22 -7 -22 4 0 16 -14 26 -32 18 -31 18 -32 -5 -55 l-24
-23 -37 19 c-32 16 -41 17 -74 6 -49 -16 -93 -60 -93 -91 0 -21 -5 -24 -35
-24 -30 0 -35 3 -35 24 0 31 -44 75 -93 91 -33 11 -42 10 -74 -6 l-37 -19 -24
23 c-23 23 -23 24 -5 55 10 18 22 32 26 32 5 0 1 10 -7 22 -9 12 -16 30 -16
39 0 26 -58 79 -86 79 -21 0 -24 5 -24 35 0 30 3 35 24 35 28 0 86 53 86 79 0
9 7 27 16 39 8 12 12 22 7 22 -4 0 -16 14 -26 32 -18 31 -18 32 5 55 l24 23
37 -19 c32 -16 41 -17 74 -6 49 16 93 60 93 91 0 21 5 24 35 24 30 0 35 -3 35
-24z"/>
<path d="M356 630 c-37 -12 -114 -85 -132 -127 -18 -41 -18 -114 0 -156 22
-52 106 -123 155 -132 80 -13 128 1 187 57 56 53 74 92 74 160 0 55 -16 88
-68 141 -62 63 -133 81 -216 57z m167 -87 c40 -32 47 -48 47 -118 0 -70 -7
-86 -47 -117 -52 -40 -144 -40 -196 0 -40 31 -47 47 -47 117 0 70 7 86 47 118
31 23 46 27 98 27 52 0 67 -4 98 -27z"/>
</g>
</svg>
